<svg width="24" height="24" viewBox="0 0 24 24" fill="none" xmlns="http://www.w3.org/2000/svg">
<path d="M12 12.5716C13.6569 12.5716 15 11.2284 15 9.57156C15 7.91471 13.6569 6.57156 12 6.57156C10.3431 6.57156 9 7.91471 9 9.57156C9 11.2284 10.3431 12.5716 12 12.5716Z" stroke="#566676" stroke-width="1.5" stroke-linecap="round" stroke-linejoin="round"/>
<path d="M17 16.5716C17 14.3616 14.761 12.5716 12 12.5716C9.239 12.5716 7 14.3616 7 16.5716" stroke="#566676" stroke-width="1.5" stroke-linecap="round" stroke-linejoin="round"/>
<path d="M18 2.57156H6C4.34315 2.57156 3 3.91471 3 5.57156V17.5716C3 19.2284 4.34315 20.5716 6 20.5716H18C19.6569 20.5716 21 19.2284 21 17.5716V5.57156C21 3.91471 19.6569 2.57156 18 2.57156Z" stroke="#566676" stroke-width="1.5" stroke-linecap="round" stroke-linejoin="round"/>
</svg>
